<?xml version="1.0"?>
<svg xmlns="http://www.w3.org/2000/svg" width="334" height="334" viewBox="0 0 334 334">
  <g id="Group_43" data-name="Group 43" transform="translate(-603 -1505)">
    <g id="Ellipse_6" data-name="Ellipse 6" transform="translate(603 1505)" stroke="#000" stroke-width="1">
      <circle cx="167" cy="167" r="167" stroke="none"/>
      <circle cx="167" cy="167" r="166.5" fill="none"/>
    </g>
    <g id="logo-black" transform="translate(639 1653.517)">
      <path id="Fill-1" d="M58.874,18.772a3.57,3.57,0,0,0,3.909-3.7c0-2.281-1.573-3.647-4.093-3.647h-4.7v7.347Zm.157,8.766c2.544,0,4.33-1.625,4.33-3.909,0-2.336-1.994-3.727-4.487-3.727H53.966v7.636ZM52.757,10.61a.348.348,0,0,1,.342-.34h5.59c3.228,0,5.432,1.863,5.432,4.75a4.5,4.5,0,0,1-2.886,4.252A4.33,4.33,0,0,1,64.7,23.655c0,2.94-2.362,4.987-5.774,4.987H53.1a.349.349,0,0,1-.342-.342Z" transform="translate(-1.095 -0.203)" fill="#fff" fill-rule="evenodd"/>
      <path id="Fill-3" d="M54.108,18.651h4.763a3.458,3.458,0,0,0,3.791-3.582c0-2.21-1.486-3.529-3.974-3.529H54.108Zm4.763.236h-5V11.3h4.815c2.6,0,4.211,1.443,4.211,3.765a3.679,3.679,0,0,1-4.027,3.818Zm-4.789,8.529h4.947c2.48,0,4.212-1.559,4.212-3.791,0-2.125-1.8-3.609-4.369-3.609H54.082Zm4.947.236H53.845V19.781h5.025c2.712,0,4.606,1.581,4.606,3.845,0,2.371-1.829,4.027-4.448,4.027ZM53.1,10.385a.229.229,0,0,0-.224.222V28.3a.23.23,0,0,0,.224.223h5.825c3.33,0,5.656-2,5.656-4.869a4.216,4.216,0,0,0-3.376-4.27l-.342-.092.329-.132A4.4,4.4,0,0,0,64,15.017c0-2.77-2.135-4.632-5.314-4.632Zm5.825,18.372H53.1a.467.467,0,0,1-.461-.46V10.608a.466.466,0,0,1,.461-.459h5.59c3.32,0,5.55,1.957,5.55,4.868a4.618,4.618,0,0,1-2.661,4.23,4.4,4.4,0,0,1,3.239,4.406c0,3.006-2.423,5.1-5.892,5.1Z" transform="translate(-1.093 -0.201)" fill="#fff" fill-rule="evenodd"/>
      <path id="Fill-5" d="M111.619,28.564c.1.212.025.342-.212.342H110.7a.3.3,0,0,1-.288-.185l-7.087-16.3h-.051l-7.168,16.3a.3.3,0,0,1-.287.185h-.683c-.237,0-.341-.158-.237-.367l8.059-18.033a.34.34,0,0,1,.315-.236h.13a.351.351,0,0,1,.29.236Z" transform="translate(-1.969 -0.203)" fill="#fff" fill-rule="evenodd"/>
      <path id="Fill-7" d="M103.193,12.3h.206l7.118,16.368a.188.188,0,0,0,.179.114h.708c.082,0,.123-.019.133-.035s.009-.062-.027-.137l0,0-7.926-18.058c-.019-.056-.093-.166-.182-.166h-.13a.225.225,0,0,0-.205.162L95,28.585a.162.162,0,0,0-.018.148.175.175,0,0,0,.148.052h.682a.183.183,0,0,0,.174-.1Zm8.212,16.718H110.7a.419.419,0,0,1-.4-.266l-7-16.1L96.211,28.766a.412.412,0,0,1-.4.256h-.682a.388.388,0,0,1-.349-.164.374.374,0,0,1,.005-.373l8.058-18.029a.455.455,0,0,1,.422-.306h.13a.466.466,0,0,1,.4.316l7.922,18.047a.323.323,0,0,1-.319.509Z" transform="translate(-1.967 -0.201)" fill="#fff" fill-rule="evenodd"/>
      <path id="Fill-9" d="M120.388,10.341a.363.363,0,0,1,.393-.342h.445l12.6,16.406h.026V10.6a.349.349,0,0,1,.342-.34h.525a.349.349,0,0,1,.342.34V28.558c0,.234-.211.342-.42.342H134.3c-.028,0-.238-.081-12.7-16.564h-.027V28.295a.348.348,0,0,1-.342.342h-.5a.348.348,0,0,1-.341-.342Z" transform="translate(-2.499 -0.198)" fill="#fff" fill-rule="evenodd"/>
      <path id="Fill-11" d="M134.338,28.779h.3c.031,0,.3-.006.3-.223V10.6a.232.232,0,0,0-.224-.222h-.525a.232.232,0,0,0-.224.222V26.521h-.176l-.061-.046-12.563-16.36h-.387a.247.247,0,0,0-.275.223V28.292a.229.229,0,0,0,.223.223h.5a.229.229,0,0,0,.223-.223V12.215h.177l.062.047c10.635,14.062,12.416,16.276,12.651,16.517m.3.236H134.3c-.1,0-.235,0-12.613-16.366V28.292a.465.465,0,0,1-.459.46h-.5a.465.465,0,0,1-.459-.46V10.338a.477.477,0,0,1,.512-.46h.5l.036.046L133.73,26.088V10.6a.465.465,0,0,1,.46-.458h.525a.465.465,0,0,1,.461.458V28.556a.481.481,0,0,1-.538.46" transform="translate(-2.497 -0.195)" fill="#fff" fill-rule="evenodd"/>
      <path id="Fill-13" d="M152.075,27.511a8.058,8.058,0,1,0,0-16.115H147.64V27.511Zm-5.67-16.9a.344.344,0,0,1,.316-.34h5.564a9.186,9.186,0,1,1,0,18.372h-5.564a.345.345,0,0,1-.316-.342Z" transform="translate(-3.039 -0.203)" fill="#fff" fill-rule="evenodd"/>
      <path id="Fill-15" d="M147.756,27.391h4.317a7.94,7.94,0,1,0,0-15.878h-4.317Zm4.317.236H147.52V11.276h4.553a8.176,8.176,0,1,1,0,16.351Zm-5.354-17.241a.228.228,0,0,0-.2.222V28.3a.229.229,0,0,0,.2.223h5.563a9.068,9.068,0,1,0,0-18.136Zm5.563,18.372h-5.563a.465.465,0,0,1-.434-.46V10.608a.464.464,0,0,1,.434-.458h5.563a9.3,9.3,0,1,1,0,18.608Z" transform="translate(-3.037 -0.201)" fill="#fff" fill-rule="evenodd"/>
      <path id="Fill-17" d="M171.539,10.61a.348.348,0,0,1,.342-.34h10.525a.348.348,0,0,1,.342.34v.445a.346.346,0,0,1-.342.342H172.8v7.979h8.319a.348.348,0,0,1,.341.342c0,.289.053.761-.341.761H172.8l-.027,7.822c0,.183-.157.342-.42.342h-.472a.349.349,0,0,1-.342-.342Z" transform="translate(-3.561 -0.203)" fill="#fff" fill-rule="evenodd"/>
      <path id="Fill-19" d="M171.878,10.385a.232.232,0,0,0-.223.222V28.3a.229.229,0,0,0,.223.223h.472c.178,0,.3-.092.3-.223l.027-7.94h8.437a.177.177,0,0,0,.139-.047c.092-.093.087-.329.084-.5v-.095a.228.228,0,0,0-.222-.223h-8.438V11.276H182.4a.229.229,0,0,0,.224-.223v-.445a.229.229,0,0,0-.224-.222Zm.472,18.372h-.472a.466.466,0,0,1-.46-.46V10.607a.465.465,0,0,1,.46-.458H182.4a.465.465,0,0,1,.461.458v.445a.466.466,0,0,1-.461.459h-9.486v7.743h8.2a.465.465,0,0,1,.458.46v.091a.934.934,0,0,1-.152.67.413.413,0,0,1-.308.118h-8.2l-.026,7.7a.485.485,0,0,1-.538.459Z" transform="translate(-3.558 -0.201)" fill="#fff" fill-rule="evenodd"/>
      <path id="Fill-21" d="M192.252,10.61a.348.348,0,0,1,.341-.34h.579a.348.348,0,0,1,.34.34V28.3a.353.353,0,0,1-.367.342h-.552a.349.349,0,0,1-.341-.342Z" transform="translate(-3.991 -0.203)" fill="#fff" fill-rule="evenodd"/>
      <path id="Fill-23" d="M192.59,10.385a.232.232,0,0,0-.223.222V28.3a.229.229,0,0,0,.223.223h.551a.236.236,0,0,0,.25-.223V10.607a.231.231,0,0,0-.222-.222Zm.551,18.372h-.551a.466.466,0,0,1-.46-.46V10.607a.465.465,0,0,1,.46-.458h.579a.464.464,0,0,1,.458.458V28.3a.469.469,0,0,1-.486.46Z" transform="translate(-3.988 -0.201)" fill="#fff" fill-rule="evenodd"/>
      <path id="Fill-25" d="M204.577,10.61a.348.348,0,0,1,.342-.34h10.525a.348.348,0,0,1,.341.34v.445a.347.347,0,0,1-.341.342h-9.605v7.246h8.319a.346.346,0,0,1,.341.342v.445a.346.346,0,0,1-.341.34h-8.319v7.769h9.605a.349.349,0,0,1,.341.342V28.3a.349.349,0,0,1-.341.342H204.919a.348.348,0,0,1-.342-.342Z" transform="translate(-4.247 -0.203)" fill="#fff" fill-rule="evenodd"/>
      <path id="Fill-27" d="M204.916,10.385a.232.232,0,0,0-.223.222V28.3a.229.229,0,0,0,.223.223h10.525a.229.229,0,0,0,.223-.223v-.421a.232.232,0,0,0-.223-.223h-9.724V19.648h8.437a.228.228,0,0,0,.222-.222v-.445a.229.229,0,0,0-.222-.223h-8.437V11.276h9.724a.229.229,0,0,0,.223-.223v-.445a.231.231,0,0,0-.223-.222Zm10.525,18.372H204.916a.466.466,0,0,1-.46-.46V10.607a.465.465,0,0,1,.46-.458h10.525a.465.465,0,0,1,.459.458v.445a.465.465,0,0,1-.459.459h-9.487v7.009h8.2a.465.465,0,0,1,.459.46v.445a.465.465,0,0,1-.459.458h-8.2v7.533h9.487a.465.465,0,0,1,.459.459V28.3a.465.465,0,0,1-.459.46Z" transform="translate(-4.244 -0.201)" fill="#fff" fill-rule="evenodd"/>
      <path id="Fill-29" d="M225.959,10.61a.348.348,0,0,1,.342-.34h.576a.345.345,0,0,1,.316.34V27.538h8.374c.314,0,.339.159.339.342v.474a.305.305,0,0,1-.339.289H226.3a.348.348,0,0,1-.342-.342Z" transform="translate(-4.691 -0.203)" fill="#fff" fill-rule="evenodd"/>
      <path id="Fill-31" d="M226.3,10.385a.232.232,0,0,0-.223.222V28.3a.229.229,0,0,0,.223.223h9.266c.11,0,.221-.053.221-.171v-.474c0-.159-.009-.223-.221-.223h-8.491V10.607a.229.229,0,0,0-.2-.222Zm9.266,18.372H226.3a.466.466,0,0,1-.46-.46V10.607a.465.465,0,0,1,.46-.458h.577a.465.465,0,0,1,.434.458v16.81h8.255c.457,0,.457.322.457.459v.474a.42.42,0,0,1-.457.407Z" transform="translate(-4.688 -0.201)" fill="#fff" fill-rule="evenodd"/>
      <path id="Fill-33" d="M250.091,27.511a8.058,8.058,0,1,0,0-16.115h-4.435V27.511Zm-5.672-16.9a.345.345,0,0,1,.317-.34H250.3a9.186,9.186,0,1,1,0,18.372h-5.563a.346.346,0,0,1-.317-.342Z" transform="translate(-5.074 -0.203)" fill="#fff" fill-rule="evenodd"/>
      <g id="Group-37" transform="translate(239.228 9.949)">
        <path id="Fill-35" d="M1.69,17.516H6.008a7.815,7.815,0,0,0,8.016-7.964A7.881,7.881,0,0,0,6.008,1.637H1.69Zm4.317.236H1.454V1.4H6.008a8.114,8.114,0,0,1,8.253,8.15,8.046,8.046,0,0,1-8.253,8.2ZM.653.511a.229.229,0,0,0-.2.222v17.69a.23.23,0,0,0,.2.223H6.216a9.068,9.068,0,1,0,0-18.136ZM6.216,18.883H.653a.466.466,0,0,1-.436-.46V.733A.465.465,0,0,1,.653.274H6.216a9.3,9.3,0,1,1,0,18.608Z" transform="translate(-0.217 -0.274)" fill="#fff" fill-rule="evenodd"/>
      </g>
      <path id="Fill-38" d="M83.211,21.338a5.615,5.615,0,0,0-1.519-11.074H75.2a.331.331,0,0,0-.34.341V28.252a.347.347,0,0,0,.34.34h.471c.262,0,.446-.158.446-.34V11.469h5.5a4.518,4.518,0,0,1,4.66,4.4,4.575,4.575,0,0,1-4.635,4.555h-.351l.769,1.4,3.615,6.53a.372.372,0,0,0,.368.236h.811c.262,0,.314-.261.182-.473Z" transform="translate(-1.554 -0.203)" fill="#fff" fill-rule="evenodd"/>
      <path id="Fill-40" d="M81.485,20.537l.673,1.23,3.615,6.53a.26.26,0,0,0,.265.175h.811c.087,0,.11-.04.117-.053a.255.255,0,0,0-.035-.24l-3.9-6.915.144-.041a5.62,5.62,0,0,0,4.235-5.358A5.547,5.547,0,0,0,81.69,10.38H75.2a.213.213,0,0,0-.222.222V28.25a.228.228,0,0,0,.222.222h.471c.2,0,.328-.115.328-.222v-16.9h5.616a4.658,4.658,0,0,1,4.778,4.516,4.718,4.718,0,0,1-4.753,4.673Zm5.363,8.171h-.811a.49.49,0,0,1-.474-.3L81.087,20.3h.551a4.482,4.482,0,0,0,4.517-4.436,4.422,4.422,0,0,0-4.542-4.28h-5.38V28.25a.514.514,0,0,1-.564.458H75.2a.464.464,0,0,1-.458-.458V10.6a.449.449,0,0,1,.458-.459H81.69a5.781,5.781,0,0,1,5.957,5.721,5.841,5.841,0,0,1-4.263,5.542l3.749,6.652a.475.475,0,0,1,.038.475.349.349,0,0,1-.323.175Z" transform="translate(-1.551 -0.201)" fill="#fff" fill-rule="evenodd"/>
      <g id="Group-44" transform="translate(0 0.483)">
        <path id="Fill-42" d="M18.77,3.3A15.727,15.727,0,1,0,34.5,19.025,15.744,15.744,0,0,0,18.77,3.3m0,34.5A18.77,18.77,0,1,1,37.539,19.025,18.791,18.791,0,0,1,18.77,37.794" transform="translate(0 -0.255)" fill="#fff" fill-rule="evenodd"/>
      </g>
      <path id="Fill-45" d="M12.817,13.5c-.078-.157-.019-.254.157-.254H25.082c.174,0,.253.118.174.273l-6,13.418a.254.254,0,0,1-.235.175h-.1a.259.259,0,0,1-.215-.175Z" transform="translate(-0.265 -0.265)" fill="#fff" fill-rule="evenodd"/>
    </g>
  </g>
</svg>
